<svg xmlns="http://www.w3.org/2000/svg" viewBox="0 0 32 32" id="Bell">
  <path d="M16.5 6c-.822 0-1.5.678-1.5 1.5 0 .23.058.447.152.643A6.496 6.496 0 0 0 10 14.5v6c0 .282-.218.5-.5.5-.822 0-1.5.678-1.5 1.5S8.678 24 9.5 24h4.55a2.5 2.5 0 0 0-.052.5 2.511 2.511 0 0 0 2.502 2.502 2.511 2.511 0 0 0 2.502-2.502c0-.17-.02-.338-.053-.5H23.5c.822 0 1.5-.678 1.5-1.5s-.678-1.5-1.5-1.5a.493.493 0 0 1-.5-.5v-6a6.48 6.48 0 0 0-1.902-4.598 6.48 6.48 0 0 0-3.25-1.76c.094-.195.152-.412.152-.642 0-.822-.677-1.5-1.5-1.5zm0 1c.282 0 .5.218.5.5 0 .282-.218.5-.5.5a.493.493 0 0 1-.5-.5c0-.282.218-.5.5-.5zm0 2c3.056 0 5.5 2.444 5.5 5.5v6c0 .176.037.343.094.5H10.906c.057-.157.094-.324.094-.5v-6c0-3.056 2.444-5.5 5.5-5.5zm-7 13h14c.286 0 .5.214.5.5 0 .286-.214.5-.5.5h-14a.488.488 0 0 1-.5-.5c0-.286.214-.5.5-.5zm5.592 2h2.816c.056.157.094.322.094.5 0 .834-.668 1.502-1.502 1.502A1.492 1.492 0 0 1 15.092 24z" color="#000" font-family="sans-serif" font-weight="400" overflow="visible" style="line-height:normal;text-indent:0;text-align:start;text-decoration-line:none;text-decoration-style:solid;text-decoration-color:#000;text-transform:none;block-progression:tb;white-space:normal;isolation:auto;mix-blend-mode:normal;solid-color:#000;solid-opacity:1" fill="#ffffff" class="color000000 svgShape"></path>
</svg>
