<svg xmlns="http://www.w3.org/2000/svg" xml:space="preserve" enable-background="new 0 0 100 100" version="1.0" viewBox="0 0 100 100" id="Translate">
  <g id="translate" fill="#ffffff" class="color000000 svgShape">
    <path d="M91.37,77.62L74.703,35.952c-0.635-1.581-2.165-2.618-3.87-2.618c-1.705,0-3.235,1.038-3.87,2.618L50.297,77.62
		c-0.854,2.136,0.185,4.561,2.321,5.416c2.134,0.854,4.563-0.183,5.418-2.323l3.99-9.975c0.163,0.019,0.306,0.096,0.474,0.096
		h16.667c0.168,0,0.311-0.076,0.474-0.096l3.99,9.975c0.651,1.632,2.218,2.62,3.87,2.62c0.517,0,1.042-0.094,1.546-0.297
		C91.182,82.182,92.224,79.757,91.37,77.62z M65.321,62.5l5.512-13.782L76.346,62.5H65.321z M47.874,60.913
		c-2.178-1.226-5.272-3.155-8.482-5.755c5.059-5.658,9.262-12.919,10.297-21.825h4.478c2.303,0,4.167-1.866,4.167-4.167
		S56.47,25,54.167,25H37.5v-4.167c0-2.301-1.866-4.167-4.167-4.167s-4.167,1.866-4.167,4.167V25H12.5
		c-2.301,0-4.167,1.866-4.167,4.167s1.866,4.167,4.167,4.167h4.481c1.045,8.858,5.265,16.131,10.302,21.777
		c-6.223,5.033-12.138,7.674-12.262,7.728c-2.112,0.911-3.086,3.365-2.179,5.473c0.68,1.579,2.214,2.523,3.829,2.523
		c0.545,0,1.103-0.106,1.638-0.338c0.612-0.261,7.726-3.418,15.057-9.529c3.936,3.296,7.758,5.71,10.423,7.21
		c0.645,0.362,1.347,0.533,2.039,0.533c1.457,0,2.871-0.765,3.636-2.124C50.592,64.579,49.88,62.04,47.874,60.913z M33.34,49.374
		c-3.807-4.324-6.965-9.691-7.963-16.04h15.914C40.299,39.672,37.16,45.041,33.34,49.374z" fill="#ffffff" class="color000000 svgShape"></path>
  </g>
</svg>
